<svg width="135" height="112" viewBox="0 0 135 112" fill="none" xmlns="http://www.w3.org/2000/svg">
<rect width="135" height="112" rx="8" fill="#97CAD1" fill-opacity="0.08"/>
<g clip-path="url(#clip0_2_2342)">
<g clip-path="url(#clip1_2_2342)">
<g clip-path="url(#clip2_2_2342)">
<path fill-rule="evenodd" clip-rule="evenodd" d="M63.1843 24.6875L61.2531 27.0842C62.0607 27.5052 62.408 28.5881 61.8222 29.424L60.2803 31.6242H65.7928L64.2509 29.424C63.6143 28.5157 64.0796 27.3158 65.0399 26.9903L63.1843 24.6875ZM66.8981 26.9057L63.5736 22.78C63.3735 22.5317 62.9951 22.5317 62.795 22.78L59.4705 26.9057L59.4613 26.917L59.3068 27.1088L58.9175 27.592C58.74 27.8122 58.7876 28.1048 58.9658 28.2725C59.0087 28.3128 59.0592 28.3459 59.1159 28.369C59.1735 28.3925 59.2376 28.4057 59.3068 28.4057H59.9273H60.1736H60.1882H60.3693H60.512C60.5929 28.4057 60.6403 28.4968 60.5938 28.5631L60.512 28.68L59.7909 29.7089L59.6529 29.9057L58.4486 31.6242L58.446 31.6278L58.3583 31.753L57.9488 32.3372C57.7166 32.6686 57.9537 33.1241 58.3583 33.1241H59.0717H59.2246H59.229H62.3071V35.8339C61.9269 35.7959 61.5412 35.7764 61.151 35.7764C60.4482 35.7764 59.7601 35.8395 59.0921 35.9604C58.6629 36.038 58.4197 36.4833 58.5555 36.8978C58.6781 37.272 59.0677 37.4857 59.4559 37.4194C60.0063 37.3254 60.5726 37.2764 61.151 37.2764C64.3493 37.2764 67.1983 38.7791 69.0279 41.1212C69.2362 41.3878 69.5863 41.5081 69.9078 41.4028C70.3826 41.2473 70.5834 40.6848 70.2797 40.2881C69.5986 39.3984 68.7903 38.6112 67.8821 37.9535C69.7031 36.0276 72.2822 34.8259 75.142 34.8259C75.6303 34.8259 76.1104 34.8609 76.58 34.9286C77.0529 34.9968 77.5006 34.6459 77.5006 34.1681C77.5006 33.8186 77.2558 33.5145 76.9104 33.4612C76.334 33.3721 75.7434 33.3259 75.142 33.3259C74.7586 33.3259 74.3796 33.3447 74.0058 33.3814V31.2191H75.6882H75.6926H75.8455H76.5589C76.9635 31.2191 77.2006 30.7636 76.9684 30.4322L76.5589 29.8479L76.4712 29.7228L76.4686 29.7191L75.8625 28.8543L75.7246 28.6574L75.0035 27.6285L74.9216 27.5117C74.8751 27.4454 74.9225 27.3543 75.0035 27.3543H75.1275H75.142H75.1462H75.3884H76.0089C76.1633 27.3543 76.2924 27.2885 76.3809 27.1891C76.4094 27.157 76.4337 27.1215 76.4532 27.0835C76.538 26.9189 76.5336 26.7087 76.3982 26.5406L76.0089 26.0574L75.8543 25.8656L75.8452 25.8543L73.4112 22.8337C73.2111 22.5854 72.8327 22.5854 72.6325 22.8337L70.1986 25.8543L70.1894 25.8656L70.0349 26.0574L69.6456 26.5406C69.5769 26.6257 69.542 26.7217 69.5352 26.8171C69.5344 26.8283 69.534 26.8395 69.534 26.8507C69.5333 27.1097 69.7371 27.3543 70.0349 27.3543H70.6554H70.7982C70.8319 27.3543 70.8599 27.3701 70.8776 27.3934L70.8809 27.3981C70.9027 27.4304 70.9059 27.4749 70.8801 27.5117L70.7982 27.6285L70.0771 28.6574L70.0349 28.7177L69.9406 28.8522L69.333 29.7191L69.3305 29.7228L69.2428 29.8479L68.8333 30.4322C68.6011 30.7636 68.8381 31.2191 69.2428 31.2191H69.9562H70.1091H70.1135H72.5058V33.6297C70.2351 34.1628 68.224 35.3694 66.6948 37.0273C66.6586 37.0665 66.6279 37.1074 66.6023 37.1494C65.732 36.6795 64.7942 36.3186 63.8071 36.085V33.1241H66.8441H66.8485H67.0014H67.7148C68.1194 33.1241 68.3564 32.6686 68.1242 32.3372L67.7148 31.753L67.627 31.6278L67.6245 31.6242L66.4202 29.9057L66.2822 29.7089L65.5611 28.68L65.4792 28.5631C65.4328 28.4968 65.4802 28.4057 65.5611 28.4057H65.7038H66.1805H66.195H66.4413H66.9603H67.0618C67.1066 28.4057 67.1493 28.4002 67.1895 28.3899C67.5259 28.3037 67.6865 27.8842 67.4511 27.592L67.0618 27.1088L66.9073 26.917L66.8981 26.9057ZM71.8261 26.2252L73.0219 24.7412L74.1268 26.1124C73.4176 26.5784 73.1413 27.5851 73.6932 28.3726L74.6369 29.7191H71.1647L72.1085 28.3726C72.6192 27.6438 72.4206 26.7272 71.8261 26.2252Z" fill="#31775A"/>
</g>
</g>
</g>
<path d="M36.3969 53.625V65H34.4516V53.625H36.3969ZM39.9672 53.625V55.1875H30.9125V53.625H39.9672ZM42.6078 58.1562V65H40.725V56.5469H42.5219L42.6078 58.1562ZM45.1937 56.4922L45.1781 58.2422C45.0635 58.2214 44.9385 58.2057 44.8031 58.1953C44.6729 58.1849 44.5427 58.1797 44.4125 58.1797C44.0896 58.1797 43.8057 58.2266 43.5609 58.3203C43.3161 58.4089 43.1104 58.5391 42.9437 58.7109C42.7823 58.8776 42.6573 59.0807 42.5687 59.3203C42.4802 59.5599 42.4281 59.8281 42.4125 60.125L41.9828 60.1562C41.9828 59.625 42.0349 59.1328 42.1391 58.6797C42.2432 58.2266 42.3995 57.8281 42.6078 57.4844C42.8214 57.1406 43.087 56.8724 43.4047 56.6797C43.7276 56.487 44.1 56.3906 44.5219 56.3906C44.6365 56.3906 44.7589 56.401 44.8891 56.4219C45.0245 56.4427 45.126 56.4661 45.1937 56.4922ZM50.8578 63.3047V59.2734C50.8578 58.9714 50.8031 58.7109 50.6937 58.4922C50.5844 58.2734 50.4177 58.1042 50.1937 57.9844C49.975 57.8646 49.699 57.8047 49.3656 57.8047C49.0583 57.8047 48.7927 57.8568 48.5687 57.9609C48.3448 58.0651 48.1703 58.2057 48.0453 58.3828C47.9203 58.5599 47.8578 58.7604 47.8578 58.9844H45.9828C45.9828 58.651 46.0635 58.3281 46.225 58.0156C46.3865 57.7031 46.6208 57.4245 46.9281 57.1797C47.2354 56.9349 47.6026 56.7422 48.0297 56.6016C48.4568 56.4609 48.9359 56.3906 49.4672 56.3906C50.1026 56.3906 50.6651 56.4974 51.1547 56.7109C51.6495 56.9245 52.0375 57.2474 52.3187 57.6797C52.6052 58.1068 52.7484 58.6432 52.7484 59.2891V63.0469C52.7484 63.4323 52.7745 63.7786 52.8266 64.0859C52.8839 64.388 52.9646 64.651 53.0687 64.875V65H51.1391C51.0505 64.7969 50.9802 64.5391 50.9281 64.2266C50.8812 63.9089 50.8578 63.6016 50.8578 63.3047ZM51.1312 59.8594L51.1469 61.0234H49.7953C49.4464 61.0234 49.1391 61.0573 48.8734 61.125C48.6078 61.1875 48.3865 61.2812 48.2094 61.4062C48.0323 61.5312 47.8995 61.6823 47.8109 61.8594C47.7224 62.0365 47.6781 62.237 47.6781 62.4609C47.6781 62.6849 47.7302 62.8906 47.8344 63.0781C47.9385 63.2604 48.0896 63.4036 48.2875 63.5078C48.4906 63.612 48.7354 63.6641 49.0219 63.6641C49.4073 63.6641 49.7432 63.5859 50.0297 63.4297C50.3214 63.2682 50.5505 63.0729 50.7172 62.8438C50.8839 62.6094 50.9724 62.388 50.9828 62.1797L51.5922 63.0156C51.5297 63.2292 51.4229 63.4583 51.2719 63.7031C51.1208 63.9479 50.9229 64.1823 50.6781 64.4062C50.4385 64.625 50.1495 64.8047 49.8109 64.9453C49.4776 65.0859 49.0922 65.1562 48.6547 65.1562C48.1026 65.1562 47.6104 65.0469 47.1781 64.8281C46.7458 64.6042 46.4073 64.3047 46.1625 63.9297C45.9177 63.5495 45.7953 63.1198 45.7953 62.6406C45.7953 62.1927 45.8786 61.7969 46.0453 61.4531C46.2172 61.1042 46.4672 60.8125 46.7953 60.5781C47.1286 60.3438 47.5349 60.1667 48.0141 60.0469C48.4932 59.9219 49.0401 59.8594 49.6547 59.8594H51.1312ZM57.3422 63.5078L59.4125 56.5469H61.3656L58.4281 65H57.2094L57.3422 63.5078ZM55.7562 56.5469L57.8656 63.5391L57.9672 65H56.7484L53.7953 56.5469H55.7562ZM66.1469 65.1562C65.5219 65.1562 64.9568 65.0547 64.4516 64.8516C63.9516 64.6432 63.5245 64.3542 63.1703 63.9844C62.8214 63.6146 62.5531 63.1797 62.3656 62.6797C62.1781 62.1797 62.0844 61.6406 62.0844 61.0625V60.75C62.0844 60.0885 62.1807 59.4896 62.3734 58.9531C62.5661 58.4167 62.8344 57.9583 63.1781 57.5781C63.5219 57.1927 63.9281 56.8984 64.3969 56.6953C64.8656 56.4922 65.3734 56.3906 65.9203 56.3906C66.5245 56.3906 67.0531 56.4922 67.5062 56.6953C67.9594 56.8984 68.3344 57.1849 68.6312 57.5547C68.9333 57.9193 69.1573 58.3542 69.3031 58.8594C69.4542 59.3646 69.5297 59.9219 69.5297 60.5312V61.3359H62.9984V59.9844H67.6703V59.8359C67.6599 59.4974 67.5922 59.1797 67.4672 58.8828C67.3474 58.5859 67.1625 58.3464 66.9125 58.1641C66.6625 57.9818 66.3292 57.8906 65.9125 57.8906C65.6 57.8906 65.3214 57.9583 65.0766 58.0938C64.837 58.224 64.6365 58.4141 64.475 58.6641C64.3135 58.9141 64.1885 59.2161 64.1 59.5703C64.0167 59.9193 63.975 60.3125 63.975 60.75V61.0625C63.975 61.4323 64.0245 61.776 64.1234 62.0938C64.2276 62.4062 64.3786 62.6797 64.5766 62.9141C64.7745 63.1484 65.0141 63.3333 65.2953 63.4688C65.5766 63.599 65.8969 63.6641 66.2562 63.6641C66.7094 63.6641 67.113 63.5729 67.4672 63.3906C67.8214 63.2083 68.1286 62.9505 68.3891 62.6172L69.3812 63.5781C69.199 63.8438 68.962 64.099 68.6703 64.3438C68.3786 64.5833 68.0219 64.7786 67.6 64.9297C67.1833 65.0807 66.699 65.1562 66.1469 65.1562ZM73.0141 53V65H71.1234V53H73.0141ZM83.8266 63.3047V59.2734C83.8266 58.9714 83.7719 58.7109 83.6625 58.4922C83.5531 58.2734 83.3865 58.1042 83.1625 57.9844C82.9437 57.8646 82.6677 57.8047 82.3344 57.8047C82.0271 57.8047 81.7615 57.8568 81.5375 57.9609C81.3135 58.0651 81.1391 58.2057 81.0141 58.3828C80.8891 58.5599 80.8266 58.7604 80.8266 58.9844H78.9516C78.9516 58.651 79.0323 58.3281 79.1937 58.0156C79.3552 57.7031 79.5896 57.4245 79.8969 57.1797C80.2042 56.9349 80.5714 56.7422 80.9984 56.6016C81.4255 56.4609 81.9047 56.3906 82.4359 56.3906C83.0714 56.3906 83.6339 56.4974 84.1234 56.7109C84.6182 56.9245 85.0062 57.2474 85.2875 57.6797C85.574 58.1068 85.7172 58.6432 85.7172 59.2891V63.0469C85.7172 63.4323 85.7432 63.7786 85.7953 64.0859C85.8526 64.388 85.9333 64.651 86.0375 64.875V65H84.1078C84.0193 64.7969 83.949 64.5391 83.8969 64.2266C83.85 63.9089 83.8266 63.6016 83.8266 63.3047ZM84.1 59.8594L84.1156 61.0234H82.7641C82.4151 61.0234 82.1078 61.0573 81.8422 61.125C81.5766 61.1875 81.3552 61.2812 81.1781 61.4062C81.001 61.5312 80.8682 61.6823 80.7797 61.8594C80.6911 62.0365 80.6469 62.237 80.6469 62.4609C80.6469 62.6849 80.699 62.8906 80.8031 63.0781C80.9073 63.2604 81.0583 63.4036 81.2562 63.5078C81.4594 63.612 81.7042 63.6641 81.9906 63.6641C82.376 63.6641 82.712 63.5859 82.9984 63.4297C83.2901 63.2682 83.5193 63.0729 83.6859 62.8438C83.8526 62.6094 83.9411 62.388 83.9516 62.1797L84.5609 63.0156C84.4984 63.2292 84.3917 63.4583 84.2406 63.7031C84.0896 63.9479 83.8917 64.1823 83.6469 64.4062C83.4073 64.625 83.1182 64.8047 82.7797 64.9453C82.4464 65.0859 82.0609 65.1562 81.6234 65.1562C81.0714 65.1562 80.5792 65.0469 80.1469 64.8281C79.7146 64.6042 79.376 64.3047 79.1312 63.9297C78.8865 63.5495 78.7641 63.1198 78.7641 62.6406C78.7641 62.1927 78.8474 61.7969 79.0141 61.4531C79.1859 61.1042 79.4359 60.8125 79.7641 60.5781C80.0974 60.3438 80.5036 60.1667 80.9828 60.0469C81.462 59.9219 82.0089 59.8594 82.6234 59.8594H84.1ZM89.5531 58.3516V65H87.6703V56.5469H89.4437L89.5531 58.3516ZM89.2172 60.4609L88.6078 60.4531C88.613 59.8542 88.6964 59.3047 88.8578 58.8047C89.0245 58.3047 89.2536 57.875 89.5453 57.5156C89.8422 57.1562 90.1964 56.8802 90.6078 56.6875C91.0193 56.4896 91.4776 56.3906 91.9828 56.3906C92.3891 56.3906 92.7562 56.4479 93.0844 56.5625C93.4177 56.6719 93.7016 56.8516 93.9359 57.1016C94.1755 57.3516 94.3578 57.6771 94.4828 58.0781C94.6078 58.474 94.6703 58.9609 94.6703 59.5391V65H92.7797V59.5312C92.7797 59.125 92.7198 58.8047 92.6 58.5703C92.4854 58.3307 92.3161 58.1615 92.0922 58.0625C91.8734 57.9583 91.6 57.9062 91.2719 57.9062C90.949 57.9062 90.6599 57.974 90.4047 58.1094C90.1495 58.2448 89.9333 58.4297 89.7562 58.6641C89.5844 58.8984 89.4516 59.1693 89.3578 59.4766C89.2641 59.7839 89.2172 60.112 89.2172 60.4609ZM101.748 63.25V53H103.639V65H101.928L101.748 63.25ZM96.2484 60.8672V60.7031C96.2484 60.0625 96.324 59.4792 96.475 58.9531C96.626 58.4219 96.8448 57.9661 97.1312 57.5859C97.4177 57.2005 97.7667 56.9062 98.1781 56.7031C98.5896 56.4948 99.0531 56.3906 99.5687 56.3906C100.079 56.3906 100.527 56.4896 100.912 56.6875C101.298 56.8854 101.626 57.1693 101.897 57.5391C102.168 57.9036 102.384 58.3411 102.545 58.8516C102.707 59.3568 102.821 59.9193 102.889 60.5391V61.0625C102.821 61.6667 102.707 62.2188 102.545 62.7188C102.384 63.2188 102.168 63.651 101.897 64.0156C101.626 64.3802 101.295 64.6615 100.905 64.8594C100.519 65.0573 100.069 65.1562 99.5531 65.1562C99.0427 65.1562 98.5818 65.0495 98.1703 64.8359C97.7641 64.6224 97.4177 64.3229 97.1312 63.9375C96.8448 63.5521 96.626 63.099 96.475 62.5781C96.324 62.0521 96.2484 61.4818 96.2484 60.8672ZM98.1312 60.7031V60.8672C98.1312 61.2526 98.1651 61.612 98.2328 61.9453C98.3057 62.2786 98.4177 62.5729 98.5687 62.8281C98.7198 63.0781 98.9151 63.276 99.1547 63.4219C99.3995 63.5625 99.6911 63.6328 100.03 63.6328C100.457 63.6328 100.808 63.5391 101.084 63.3516C101.36 63.1641 101.577 62.9115 101.733 62.5938C101.894 62.2708 102.004 61.9115 102.061 61.5156V60.1016C102.03 59.7943 101.965 59.5078 101.866 59.2422C101.772 58.9766 101.644 58.7448 101.483 58.5469C101.321 58.3438 101.121 58.1875 100.881 58.0781C100.647 57.9635 100.368 57.9062 100.045 57.9062C99.7016 57.9062 99.4099 57.9792 99.1703 58.125C98.9307 58.2708 98.7328 58.4714 98.5766 58.7266C98.4255 58.9818 98.3135 59.2786 98.2406 59.6172C98.1677 59.9557 98.1312 60.3177 98.1312 60.7031ZM48.7797 83V83.625C48.7797 84.4844 48.6677 85.2552 48.4437 85.9375C48.2198 86.6198 47.8995 87.2005 47.4828 87.6797C47.0714 88.1589 46.5766 88.526 45.9984 88.7812C45.4203 89.0312 44.7797 89.1562 44.0766 89.1562C43.3786 89.1562 42.7406 89.0312 42.1625 88.7812C41.5896 88.526 41.0922 88.1589 40.6703 87.6797C40.2484 87.2005 39.9203 86.6198 39.6859 85.9375C39.4568 85.2552 39.3422 84.4844 39.3422 83.625V83C39.3422 82.1406 39.4568 81.3724 39.6859 80.6953C39.9151 80.013 40.238 79.4323 40.6547 78.9531C41.0766 78.4688 41.574 78.1016 42.1469 77.8516C42.725 77.5964 43.363 77.4688 44.0609 77.4688C44.7641 77.4688 45.4047 77.5964 45.9828 77.8516C46.5609 78.1016 47.0583 78.4688 47.475 78.9531C47.8917 79.4323 48.212 80.013 48.4359 80.6953C48.6651 81.3724 48.7797 82.1406 48.7797 83ZM46.8187 83.625V82.9844C46.8187 82.349 46.7562 81.7891 46.6312 81.3047C46.5115 80.8151 46.3318 80.4062 46.0922 80.0781C45.8578 79.7448 45.5687 79.4948 45.225 79.3281C44.8812 79.1562 44.4932 79.0703 44.0609 79.0703C43.6286 79.0703 43.2432 79.1562 42.9047 79.3281C42.5661 79.4948 42.2771 79.7448 42.0375 80.0781C41.8031 80.4062 41.6234 80.8151 41.4984 81.3047C41.3734 81.7891 41.3109 82.349 41.3109 82.9844V83.625C41.3109 84.2604 41.3734 84.8229 41.4984 85.3125C41.6234 85.8021 41.8057 86.2161 42.0453 86.5547C42.2901 86.888 42.5818 87.1406 42.9203 87.3125C43.2589 87.4792 43.6443 87.5625 44.0766 87.5625C44.5141 87.5625 44.9021 87.4792 45.2406 87.3125C45.5792 87.1406 45.8656 86.888 46.1 86.5547C46.3344 86.2161 46.5115 85.8021 46.6312 85.3125C46.7562 84.8229 46.8187 84.2604 46.8187 83.625ZM55.6391 87.0078V80.5469H57.5297V89H55.7484L55.6391 87.0078ZM55.9047 85.25L56.5375 85.2344C56.5375 85.8021 56.475 86.3255 56.35 86.8047C56.225 87.2786 56.0323 87.6927 55.7719 88.0469C55.5115 88.3958 55.1781 88.6693 54.7719 88.8672C54.3656 89.0599 53.8786 89.1562 53.3109 89.1562C52.8995 89.1562 52.5219 89.0964 52.1781 88.9766C51.8344 88.8568 51.5375 88.6719 51.2875 88.4219C51.0427 88.1719 50.8526 87.8464 50.7172 87.4453C50.5818 87.0443 50.5141 86.5651 50.5141 86.0078V80.5469H52.3969V86.0234C52.3969 86.3307 52.4333 86.5885 52.5062 86.7969C52.5792 87 52.6781 87.1641 52.8031 87.2891C52.9281 87.4141 53.074 87.5026 53.2406 87.5547C53.4073 87.6068 53.5844 87.6328 53.7719 87.6328C54.3083 87.6328 54.7302 87.5286 55.0375 87.3203C55.35 87.1068 55.5714 86.8203 55.7016 86.4609C55.837 86.1016 55.9047 85.6979 55.9047 85.25ZM63.3344 80.5469V81.9219H58.5687V80.5469H63.3344ZM59.9437 78.4766H61.8266V86.6641C61.8266 86.9245 61.863 87.125 61.9359 87.2656C62.0141 87.401 62.1208 87.4922 62.2562 87.5391C62.3917 87.5859 62.5505 87.6094 62.7328 87.6094C62.863 87.6094 62.988 87.6016 63.1078 87.5859C63.2276 87.5703 63.324 87.5547 63.3969 87.5391L63.4047 88.9766C63.2484 89.0234 63.0661 89.0651 62.8578 89.1016C62.6547 89.138 62.4203 89.1562 62.1547 89.1562C61.7224 89.1562 61.3396 89.0807 61.0062 88.9297C60.6729 88.7734 60.4125 88.5208 60.225 88.1719C60.0375 87.8229 59.9437 87.3594 59.9437 86.7812V78.4766ZM69.9437 87.25V77H71.8344V89H70.1234L69.9437 87.25ZM64.4437 84.8672V84.7031C64.4437 84.0625 64.5193 83.4792 64.6703 82.9531C64.8214 82.4219 65.0401 81.9661 65.3266 81.5859C65.613 81.2005 65.962 80.9062 66.3734 80.7031C66.7849 80.4948 67.2484 80.3906 67.7641 80.3906C68.2745 80.3906 68.7224 80.4896 69.1078 80.6875C69.4932 80.8854 69.8214 81.1693 70.0922 81.5391C70.363 81.9036 70.5792 82.3411 70.7406 82.8516C70.9021 83.3568 71.0167 83.9193 71.0844 84.5391V85.0625C71.0167 85.6667 70.9021 86.2188 70.7406 86.7188C70.5792 87.2188 70.363 87.651 70.0922 88.0156C69.8214 88.3802 69.4906 88.6615 69.1 88.8594C68.7146 89.0573 68.2641 89.1562 67.7484 89.1562C67.238 89.1562 66.7771 89.0495 66.3656 88.8359C65.9594 88.6224 65.613 88.3229 65.3266 87.9375C65.0401 87.5521 64.8214 87.099 64.6703 86.5781C64.5193 86.0521 64.4437 85.4818 64.4437 84.8672ZM66.3266 84.7031V84.8672C66.3266 85.2526 66.3604 85.612 66.4281 85.9453C66.501 86.2786 66.613 86.5729 66.7641 86.8281C66.9151 87.0781 67.1104 87.276 67.35 87.4219C67.5948 87.5625 67.8865 87.6328 68.225 87.6328C68.6521 87.6328 69.0036 87.5391 69.2797 87.3516C69.5557 87.1641 69.7719 86.9115 69.9281 86.5938C70.0896 86.2708 70.199 85.9115 70.2562 85.5156V84.1016C70.225 83.7943 70.1599 83.5078 70.0609 83.2422C69.9672 82.9766 69.8396 82.7448 69.6781 82.5469C69.5167 82.3438 69.3161 82.1875 69.0766 82.0781C68.8422 81.9635 68.5635 81.9062 68.2406 81.9062C67.8969 81.9062 67.6052 81.9792 67.3656 82.125C67.126 82.2708 66.9281 82.4714 66.7719 82.7266C66.6208 82.9818 66.5089 83.2786 66.4359 83.6172C66.363 83.9557 66.3266 84.3177 66.3266 84.7031ZM73.4437 84.8672V84.6875C73.4437 84.0781 73.5323 83.513 73.7094 82.9922C73.8865 82.4661 74.1417 82.0104 74.475 81.625C74.8135 81.2344 75.225 80.9323 75.7094 80.7188C76.199 80.5 76.751 80.3906 77.3656 80.3906C77.9854 80.3906 78.5375 80.5 79.0219 80.7188C79.5115 80.9323 79.9255 81.2344 80.2641 81.625C80.6026 82.0104 80.8604 82.4661 81.0375 82.9922C81.2146 83.513 81.3031 84.0781 81.3031 84.6875V84.8672C81.3031 85.4766 81.2146 86.0417 81.0375 86.5625C80.8604 87.0833 80.6026 87.5391 80.2641 87.9297C79.9255 88.3151 79.5141 88.6172 79.0297 88.8359C78.5453 89.0495 77.9958 89.1562 77.3812 89.1562C76.7615 89.1562 76.2068 89.0495 75.7172 88.8359C75.2328 88.6172 74.8214 88.3151 74.4828 87.9297C74.1443 87.5391 73.8865 87.0833 73.7094 86.5625C73.5323 86.0417 73.4437 85.4766 73.4437 84.8672ZM75.3266 84.6875V84.8672C75.3266 85.2474 75.3656 85.6068 75.4437 85.9453C75.5219 86.2839 75.6443 86.5807 75.8109 86.8359C75.9776 87.0911 76.1911 87.2917 76.4516 87.4375C76.712 87.5833 77.0219 87.6562 77.3812 87.6562C77.7302 87.6562 78.0323 87.5833 78.2875 87.4375C78.5479 87.2917 78.7615 87.0911 78.9281 86.8359C79.0948 86.5807 79.2172 86.2839 79.2953 85.9453C79.3786 85.6068 79.4203 85.2474 79.4203 84.8672V84.6875C79.4203 84.3125 79.3786 83.9583 79.2953 83.625C79.2172 83.2865 79.0922 82.987 78.9203 82.7266C78.7536 82.4661 78.5401 82.263 78.2797 82.1172C78.0245 81.9661 77.7198 81.8906 77.3656 81.8906C77.0115 81.8906 76.7042 81.9661 76.4437 82.1172C76.1885 82.263 75.9776 82.4661 75.8109 82.7266C75.6443 82.987 75.5219 83.2865 75.4437 83.625C75.3656 83.9583 75.3266 84.3125 75.3266 84.6875ZM82.5219 84.8672V84.6875C82.5219 84.0781 82.6104 83.513 82.7875 82.9922C82.9646 82.4661 83.2198 82.0104 83.5531 81.625C83.8917 81.2344 84.3031 80.9323 84.7875 80.7188C85.2771 80.5 85.8292 80.3906 86.4437 80.3906C87.0635 80.3906 87.6156 80.5 88.1 80.7188C88.5896 80.9323 89.0036 81.2344 89.3422 81.625C89.6807 82.0104 89.9385 82.4661 90.1156 82.9922C90.2927 83.513 90.3812 84.0781 90.3812 84.6875V84.8672C90.3812 85.4766 90.2927 86.0417 90.1156 86.5625C89.9385 87.0833 89.6807 87.5391 89.3422 87.9297C89.0036 88.3151 88.5922 88.6172 88.1078 88.8359C87.6234 89.0495 87.074 89.1562 86.4594 89.1562C85.8396 89.1562 85.2849 89.0495 84.7953 88.8359C84.3109 88.6172 83.8995 88.3151 83.5609 87.9297C83.2224 87.5391 82.9646 87.0833 82.7875 86.5625C82.6104 86.0417 82.5219 85.4766 82.5219 84.8672ZM84.4047 84.6875V84.8672C84.4047 85.2474 84.4437 85.6068 84.5219 85.9453C84.6 86.2839 84.7224 86.5807 84.8891 86.8359C85.0557 87.0911 85.2693 87.2917 85.5297 87.4375C85.7901 87.5833 86.1 87.6562 86.4594 87.6562C86.8083 87.6562 87.1104 87.5833 87.3656 87.4375C87.626 87.2917 87.8396 87.0911 88.0062 86.8359C88.1729 86.5807 88.2953 86.2839 88.3734 85.9453C88.4568 85.6068 88.4984 85.2474 88.4984 84.8672V84.6875C88.4984 84.3125 88.4568 83.9583 88.3734 83.625C88.2953 83.2865 88.1703 82.987 87.9984 82.7266C87.8318 82.4661 87.6182 82.263 87.3578 82.1172C87.1026 81.9661 86.7979 81.8906 86.4437 81.8906C86.0896 81.8906 85.7823 81.9661 85.5219 82.1172C85.2667 82.263 85.0557 82.4661 84.8891 82.7266C84.7224 82.987 84.6 83.2865 84.5219 83.625C84.4437 83.9583 84.4047 84.3125 84.4047 84.6875ZM93.85 82.1562V89H91.9672V80.5469H93.7641L93.85 82.1562ZM96.4359 80.4922L96.4203 82.2422C96.3057 82.2214 96.1807 82.2057 96.0453 82.1953C95.9151 82.1849 95.7849 82.1797 95.6547 82.1797C95.3318 82.1797 95.0479 82.2266 94.8031 82.3203C94.5583 82.4089 94.3526 82.5391 94.1859 82.7109C94.0245 82.8776 93.8995 83.0807 93.8109 83.3203C93.7224 83.5599 93.6703 83.8281 93.6547 84.125L93.225 84.1562C93.225 83.625 93.2771 83.1328 93.3812 82.6797C93.4854 82.2266 93.6417 81.8281 93.85 81.4844C94.0635 81.1406 94.3292 80.8724 94.6469 80.6797C94.9698 80.487 95.3422 80.3906 95.7641 80.3906C95.8786 80.3906 96.001 80.401 96.1312 80.4219C96.2667 80.4427 96.3682 80.4661 96.4359 80.4922Z" fill="#212121"/>
<defs>
<clipPath id="clip0_2_2342">
<rect width="20" height="20" fill="white" transform="translate(57.5 22)"/>
</clipPath>
<clipPath id="clip1_2_2342">
<rect width="20" height="20" fill="white" transform="translate(57.5 22)"/>
</clipPath>
<clipPath id="clip2_2_2342">
<rect width="20" height="20" fill="white" transform="translate(57.5 22)"/>
</clipPath>
</defs>
</svg>
