<svg width="272" height="153" viewBox="0 0 272 153"
 fill="none" xmlns="http://www.w3.org/2000/svg" 
 xmlns:xlink="http://www.w3.org/1999/xlink">
<rect width="272" height="153" rx="8" fill="url
(#pattern0_2_2102)"/>
<rect x="10" y="5" width="105.22" height="20" rx="4"
 fill="white"/>
<path fill-rule="evenodd" clip-rule="evenodd" d="M16.6663 9.
66699C15.93 9.66699 15.333 10.2639 15.333 11.0003V19.
0003C15.333 19.7367 15.93 20.3337 16.6663 20.3337H23.333C24.
0694 20.3337 24.6663 19.7367 24.6663 19.0003V17.1249C24.
6663 17.0717 24.7257 17.0399 24.77 17.0694L27.6299 18.
976C28.0729 19.2714 28.6663 18.9538 28.6663 18.4213V11.
5793C28.6663 11.0469 28.0729 10.7293 27.6299 11.0246L24.77
12.9312C24.7257 12.9608 24.6663 12.929 24.6663 12.8758V11.
0003C24.6663 10.2639 24.0694 9.66699 23.333 9.66699H16.
6663Z" fill="#707070"/>
<g clip-path="url(#clip0_2_2102)">
<path d="M41.6699 14.5V14.9688C41.6699 15.6133 41.5859 16.1914 41.418 16.7031C41.25 17.2148 41.0098 17.6504 40.6973 18.0098C40.3887 18.3691 40.0176 18.6445 39.584 18.8359C39.1504 19.0234 38.6699 19.1172 38.1426 19.1172C37.6191 19.1172 37.1406 19.0234 36.707 18.8359C36.2773 18.6445 35.9043 18.3691 35.5879 18.0098C35.2715 17.6504 35.0254 17.2148 34.8496 16.7031C34.6777 16.1914 34.5918 15.6133 34.5918 14.9688V14.5C34.5918 13.8555 34.6777 13.2793 34.8496 12.7715C35.0215 12.2598 35.2637 11.8242 35.5762 11.4648C35.8926 11.1016 36.2656 10.8262 36.6953 10.6387C37.1289 10.4473 37.6074 10.3516 38.1309 10.3516C38.6582 10.3516 39.1387 10.4473 39.5723 10.6387C40.0059 10.8262 40.3789 11.1016 40.6914 11.4648C41.0039 11.8242 41.2441 12.2598 41.4121 12.7715C41.584 13.2793 41.6699 13.8555 41.6699 14.5ZM40.1992 14.9688V14.4883C40.1992 14.0117 40.1523 13.5918 40.0586 13.2285C39.9688 12.8613 39.834 12.5547 39.6543 12.3086C39.4785 12.0586 39.2617 11.8711 39.0039 11.7461C38.7461 11.6172 38.4551 11.5527 38.1309 11.5527C37.8066 11.5527 37.5176 11.6172 37.2637 11.7461C37.0098 11.8711 36.793 12.0586 36.6133 12.3086C36.4375 12.5547 36.3027 12.8613 36.209 13.2285C36.1152 13.5918 36.0684 14.0117 36.0684 14.4883V14.9688C36.0684 15.4453 36.1152 15.8672 36.209 16.2344C36.3027 16.6016 36.4395 16.9121 36.6191 17.166C36.8027 17.416 37.0215 17.6055 37.2754 17.7344C37.5293 17.8594 37.8184 17.9219 38.1426 17.9219C38.4707 17.9219 38.7617 17.8594 39.0156 17.7344C39.2695 17.6055 39.4844 17.416 39.6602 17.166C39.8359 16.9121 39.9688 16.6016 40.0586 16.2344C40.1523 15.8672 40.1992 15.4453 40.1992 14.9688ZM44.4004 14.0137V19H42.9883V12.6602H44.3184L44.4004 14.0137ZM44.1484 15.5957L43.6914 15.5898C43.6953 15.1406 43.7578 14.7285 43.8789 14.3535C44.0039 13.9785 44.1758 13.6562 44.3945 13.3867C44.6172 13.1172 44.8828 12.9102 45.1914 12.7656C45.5 12.6172 45.8438 12.543 46.2227 12.543C46.5273 12.543 46.8027 12.5859 47.0488 12.6719C47.2988 12.7539 47.5117 12.8887 47.6875 13.0762C47.8672 13.2637 48.0039 13.5078 48.0977 13.8086C48.1914 14.1055 48.2383 14.4707 48.2383 14.9043V19H46.8203V14.8984C46.8203 14.5938 46.7754 14.3535 46.6855 14.1777C46.5996 13.998 46.4727 13.8711 46.3047 13.7969C46.1406 13.7188 45.9355 13.6797 45.6895 13.6797C45.4473 13.6797 45.2305 13.7305 45.0391 13.832C44.8477 13.9336 44.6855 14.0723 44.5527 14.248C44.4238 14.4238 44.3242 14.627 44.2539 14.8574C44.1836 15.0879 44.1484 15.334 44.1484 15.5957ZM51.1914 10V19H49.7734V10H51.1914ZM54.25 12.6602V19H52.832V12.6602H54.25ZM52.7383 10.9961C52.7383 10.7812 52.8086 10.6035 52.9492 10.4629C53.0938 10.3184 53.293 10.2461 53.5469 10.2461C53.7969 10.2461 53.9941 10.3184 54.1387 10.4629C54.2832 10.6035 54.3555 10.7812 54.3555 10.9961C54.3555 11.207 54.2832 11.3828 54.1387 11.5234C53.9941 11.6641 53.7969 11.7344 53.5469 11.7344C53.293 11.7344 53.0938 11.6641 52.9492 11.5234C52.8086 11.3828 52.7383 11.207 52.7383 10.9961ZM57.1973 14.0137V19H55.7852V12.6602H57.1152L57.1973 14.0137ZM56.9453 15.5957L56.4883 15.5898C56.4922 15.1406 56.5547 14.7285 56.6758 14.3535C56.8008 13.9785 56.9727 13.6562 57.1914 13.3867C57.4141 13.1172 57.6797 12.9102 57.9883 12.7656C58.2969 12.6172 58.6406 12.543 59.0195 12.543C59.3242 12.543 59.5996 12.5859 59.8457 12.6719C60.0957 12.7539 60.3086 12.8887 60.4844 13.0762C60.6641 13.2637 60.8008 13.5078 60.8945 13.8086C60.9883 14.1055 61.0352 14.4707 61.0352 14.9043V19H59.6172V14.8984C59.6172 14.5938 59.5723 14.3535 59.4824 14.1777C59.3965 13.998 59.2695 13.8711 59.1016 13.7969C58.9375 13.7188 58.7324 13.6797 58.4863 13.6797C58.2441 13.6797 58.0273 13.7305 57.8359 13.832C57.6445 13.9336 57.4824 14.0723 57.3496 14.248C57.2207 14.4238 57.1211 14.627 57.0508 14.8574C56.9805 15.0879 56.9453 15.334 56.9453 15.5957ZM65.2715 19.1172C64.8027 19.1172 64.3789 19.041 64 18.8887C63.625 18.7324 63.3047 18.5156 63.0391 18.2383C62.7773 17.9609 62.5762 17.6348 62.4355 17.2598C62.2949 16.8848 62.2246 16.4805 62.2246 16.0469V15.8125C62.2246 15.3164 62.2969 14.8672 62.4414 14.4648C62.5859 14.0625 62.7871 13.7188 63.0449 13.4336C63.3027 13.1445 63.6074 12.9238 63.959 12.7715C64.3105 12.6191 64.6914 12.543 65.1016 12.543C65.5547 12.543 65.9512 12.6191 66.291 12.7715C66.6309 12.9238 66.9121 13.1387 67.1348 13.416C67.3613 13.6895 67.5293 14.0156 67.6387 14.3945C67.752 14.7734 67.8086 15.1914 67.8086 15.6484V16.252H62.9102V15.2383H66.4141V15.127C66.4062 14.873 66.3555 14.6348 66.2617 14.4121C66.1719 14.1895 66.0332 14.0098 65.8457 13.873C65.6582 13.7363 65.4082 13.668 65.0957 13.668C64.8613 13.668 64.6523 13.7188 64.4688 13.8203C64.2891 13.918 64.1387 14.0605 64.0176 14.248C63.8965 14.4355 63.8027 14.6621 63.7363 14.9277C63.6738 15.1895 63.6426 15.4844 63.6426 15.8125V16.0469C63.6426 16.3242 63.6797 16.582 63.7539 16.8203C63.832 17.0547 63.9453 17.2598 64.0938 17.4355C64.2422 17.6113 64.4219 17.75 64.6328 17.8516C64.8438 17.9492 65.084 17.998 65.3535 17.998C65.6934 17.998 65.9961 17.9297 66.2617 17.793C66.5273 17.6562 66.7578 17.4629 66.9531 17.2129L67.6973 17.9336C67.5605 18.1328 67.3828 18.3242 67.1641 18.5078C66.9453 18.6875 66.6777 18.834 66.3613 18.9473C66.0488 19.0605 65.6855 19.1172 65.2715 19.1172ZM77.623 17.834V19H73.0938V17.834H77.623ZM73.5098 10.4688V19H72.0391V10.4688H73.5098ZM77.0312 14.0312V15.1797H73.0938V14.0312H77.0312ZM77.5938 10.4688V11.6406H73.0938V10.4688H77.5938ZM80.5938 17.8809L82.1465 12.6602H83.6113L81.4082 19H80.4941L80.5938 17.8809ZM79.4043 12.6602L80.9863 17.9043L81.0625 19H80.1484L77.9336 12.6602H79.4043ZM87.1973 19.1172C86.7285 19.1172 86.3047 19.041 85.9258 18.8887C85.5508 18.7324 85.2305 18.5156 84.9648 18.2383C84.7031 17.9609 84.502 17.6348 84.3613 17.2598C84.2207 16.8848 84.1504 16.4805 84.1504 16.0469V15.8125C84.1504 15.3164 84.2227 14.8672 84.3672 14.4648C84.5117 14.0625 84.7129 13.7188 84.9707 13.4336C85.2285 13.1445 85.5332 12.9238 85.8848 12.7715C86.2363 12.6191 86.6172 12.543 87.0273 12.543C87.4805 12.543 87.877 12.6191 88.2168 12.7715C88.5566 12.9238 88.8379 13.1387 89.0605 13.416C89.2871 13.6895 89.4551 14.0156 89.5645 14.3945C89.6777 14.7734 89.7344 15.1914 89.7344 15.6484V16.252H84.8359V15.2383H88.3398V15.127C88.332 14.873 88.2812 14.6348 88.1875 14.4121C88.0977 14.1895 87.959 14.0098 87.7715 13.873C87.584 13.7363 87.334 13.668 87.0215 13.668C86.7871 13.668 86.5781 13.7188 86.3945 13.8203C86.2148 13.918 86.0645 14.0605 85.9434 14.248C85.8223 14.4355 85.7285 14.6621 85.6621 14.9277C85.5996 15.1895 85.5684 15.4844 85.5684 15.8125V16.0469C85.5684 16.3242 85.6055 16.582 85.6797 16.8203C85.7578 17.0547 85.8711 17.2598 86.0195 17.4355C86.168 17.6113 86.3477 17.75 86.5586 17.8516C86.7695 17.9492 87.0098 17.998 87.2793 17.998C87.6191 17.998 87.9219 17.9297 88.1875 17.793C88.4531 17.6562 88.6836 17.4629 88.8789 17.2129L89.623 17.9336C89.4863 18.1328 89.3086 18.3242 89.0898 18.5078C88.8711 18.6875 88.6035 18.834 88.2871 18.9473C87.9746 19.0605 87.6113 19.1172 87.1973 19.1172ZM92.2363 14.0137V19H90.8242V12.6602H92.1543L92.2363 14.0137ZM91.9844 15.5957L91.5273 15.5898C91.5312 15.1406 91.5938 14.7285 91.7148 14.3535C91.8398 13.9785 92.0117 13.6562 92.2305 13.3867C92.4531 13.1172 92.7188 12.9102 93.0273 12.7656C93.3359 12.6172 93.6797 12.543 94.0586 12.543C94.3633 12.543 94.6387 12.5859 94.8848 12.6719C95.1348 12.7539 95.3477 12.8887 95.5234 13.0762C95.7031 13.2637 95.8398 13.5078 95.9336 13.8086C96.0273 14.1055 96.0742 14.4707 96.0742 14.9043V19H94.6562V14.8984C94.6562 14.5938 94.6113 14.3535 94.5215 14.1777C94.4355 13.998 94.3086 13.8711 94.1406 13.7969C93.9766 13.7188 93.7715 13.6797 93.5254 13.6797C93.2832 13.6797 93.0664 13.7305 92.875 13.832C92.6836 13.9336 92.5215 14.0723 92.3887 14.248C92.2598 14.4238 92.1602 14.627 92.0898 14.8574C92.0195 15.0879 91.9844 15.334 91.9844 15.5957ZM100.422 12.6602V13.6914H96.8477V12.6602H100.422ZM97.8789 11.1074H99.291V17.248C99.291 17.4434 99.3184 17.5938 99.373 17.6992C99.4316 17.8008 99.5117 17.8691 99.6133 17.9043C99.7148 17.9395 99.834 17.957 99.9707 17.957C100.068 17.957 100.162 17.9512 100.252 17.9395C100.342 17.9277 100.414 17.916 100.469 17.9043L100.475 18.9824C100.357 19.0176 100.221 19.0488 100.064 19.0762C99.9121 19.1035 99.7363 19.1172 99.5371 19.1172C99.2129 19.1172 98.9258 19.0605 98.6758 18.9473C98.4258 18.8301 98.2305 18.6406 98.0898 18.3789C97.9492 18.1172 97.8789 17.7695 97.8789 17.3359V11.1074Z" fill="#707070"/>
</g>
<defs>
<pattern id="pattern0_2_2102" patternContentUnits=
"objectBoundingBox" width="1" height="1">
<use xlink:href="#image0_2_2102" transform="matrix(0.00277778 0 0 0.00493827 0 -0.00123457)"/>
</pattern>
<clipPath id="clip0_2_2102">
<rect width="73.22" height="16" fill="white" transform="translate(34 7)"/>
</clipPath>

</defs>
</svg>
